<svg width="61" height="65" viewBox="0 0 61 65" fill="none" xmlns="http://www.w3.org/2000/svg">
<path d="M44.7087 64.8628C41.0497 64.8657 37.4969 63.6444 34.6255 61.3965C31.7541 59.1487 29.7323 56.006 28.8875 52.4774L19.8754 15.4478C19.6713 14.5689 19.1462 13.7959 18.4014 13.2777C17.6565 12.7596 16.7445 12.533 15.8412 12.6416C14.9378 12.7502 14.1069 13.1863 13.5086 13.8659C12.9103 14.5455 12.5869 15.4205 12.6007 16.3224V58.6173C12.6191 59.4488 12.4698 60.2756 12.1615 61.0491C11.8532 61.8227 11.3922 62.5274 10.8054 63.122C10.2186 63.7165 9.51786 64.1889 8.74439 64.5114C7.97091 64.8339 7.14024 65 6.30111 65C5.46199 65 4.63131 64.8339 3.85784 64.5114C3.08436 64.1889 2.38367 63.7165 1.79687 63.122C1.21007 62.5274 0.748995 61.8227 0.440695 61.0491C0.132396 60.2756 -0.0169165 59.4488 0.00152138 58.6173V16.3224C-0.0123426 12.3634 1.44236 8.53743 4.08894 5.5722C6.73552 2.60696 10.3894 0.709309 14.3555 0.240165C18.3217 -0.228979 22.3234 0.763114 25.5997 3.02775C28.876 5.29239 31.1982 8.67158 32.1247 12.5226L41.1246 49.5522C41.3287 50.4311 41.8538 51.2041 42.5986 51.7223C43.3435 52.2404 44.2555 52.467 45.1588 52.3584C46.0622 52.2498 46.8931 51.8137 47.4914 51.1341C48.0897 50.4545 48.4131 49.5795 48.3993 48.6776V6.3827C48.3809 5.55119 48.5302 4.7244 48.8385 3.95085C49.1468 3.1773 49.6079 2.47258 50.1946 1.87804C50.7814 1.28351 51.4821 0.811126 52.2556 0.488625C53.0291 0.166125 53.8598 0 54.6989 0C55.538 0 56.3687 0.166125 57.1422 0.488625C57.9156 0.811126 58.6163 1.28351 59.2031 1.87804C59.7899 2.47258 60.251 3.1773 60.5593 3.95085C60.8676 4.7244 61.0169 5.55119 60.9985 6.3827V48.6897C60.9993 52.9757 59.2846 57.087 56.2306 60.1213C53.1766 63.1557 49.0329 64.8652 44.7087 64.8748" fill="white"/>
</svg>
